<svg xmlns="http://www.w3.org/2000/svg" width="1040" height="984" viewBox="0 0 1040 984" fill="black" stroke="none">
<path d="M 809 507 L 809 523 L 808 524 L 808 545 L 809 546 L 810 545 L 813 545 L 814 544 L 815 544 L 820 539 L 820 538 L 821 537 L 821 535 L 822 534 L 822 533 L 823 532 L 823 528 L 824 527 L 824 520 L 823 519 L 823 516 L 822 515 L 822 514 L 821 513 L 821 512 L 817 508 L 816 508 L 815 507 Z" fill-rule="evenodd" />
<path d="M 642 507 L 641 508 L 641 546 L 642 546 L 643 545 L 645 545 L 646 544 L 647 544 L 648 543 L 649 543 L 651 541 L 651 540 L 653 538 L 653 537 L 654 536 L 654 534 L 655 533 L 655 530 L 656 529 L 656 518 L 655 517 L 655 515 L 654 514 L 654 513 L 653 512 L 653 511 L 651 509 L 650 509 L 648 507 Z" fill-rule="evenodd" />
<path d="M 560 507 L 556 511 L 556 512 L 555 513 L 555 514 L 554 515 L 554 516 L 553 517 L 553 519 L 552 520 L 552 523 L 551 524 L 551 528 L 550 529 L 550 537 L 549 538 L 549 546 L 550 547 L 550 554 L 551 555 L 551 559 L 552 560 L 552 563 L 553 564 L 553 566 L 554 567 L 554 568 L 555 569 L 555 570 L 556 571 L 556 572 L 560 576 L 566 576 L 570 572 L 570 571 L 571 570 L 571 569 L 572 568 L 572 566 L 573 565 L 573 563 L 574 562 L 574 559 L 575 558 L 575 554 L 576 553 L 576 530 L 575 529 L 575 525 L 574 524 L 574 521 L 573 520 L 573 517 L 572 516 L 572 515 L 571 514 L 571 513 L 570 512 L 570 511 L 566 507 Z" fill-rule="evenodd" />
<path d="M 730 506 L 729 507 L 728 507 L 727 508 L 726 508 L 724 510 L 724 511 L 723 512 L 723 513 L 722 514 L 722 515 L 721 516 L 721 518 L 720 519 L 720 522 L 719 523 L 719 527 L 718 528 L 718 533 L 717 534 L 717 548 L 718 549 L 718 555 L 719 556 L 719 560 L 720 561 L 720 563 L 721 564 L 721 566 L 722 567 L 722 569 L 723 570 L 723 571 L 728 576 L 733 576 L 734 575 L 735 575 L 737 573 L 737 571 L 735 569 L 735 568 L 734 567 L 734 566 L 733 565 L 733 564 L 732 563 L 732 562 L 731 561 L 731 560 L 732 559 L 733 559 L 734 558 L 735 558 L 736 557 L 738 557 L 739 558 L 739 559 L 740 560 L 740 561 L 741 562 L 741 563 L 742 562 L 742 559 L 743 558 L 743 554 L 744 553 L 744 531 L 743 530 L 743 525 L 742 524 L 742 521 L 741 520 L 741 518 L 740 517 L 740 515 L 739 514 L 739 513 L 738 512 L 738 511 L 734 507 L 732 507 L 731 506 Z" fill-rule="evenodd" />
<path d="M 246 390 L 246 403 L 247 404 L 247 419 L 249 419 L 250 418 L 252 418 L 253 417 L 254 417 L 257 414 L 257 413 L 258 412 L 258 411 L 259 410 L 259 399 L 258 398 L 258 396 L 256 394 L 256 393 L 255 392 L 254 392 L 253 391 L 252 391 L 251 390 Z" fill-rule="evenodd" />
<path d="M 164 369 L 164 372 L 163 373 L 163 376 L 162 377 L 162 381 L 161 382 L 161 385 L 160 386 L 160 389 L 159 390 L 159 393 L 158 394 L 158 397 L 172 397 L 171 396 L 171 393 L 170 392 L 170 390 L 169 389 L 169 386 L 168 385 L 168 383 L 167 382 L 167 379 L 166 378 L 166 376 L 165 375 L 165 371 L 164 370 Z" fill-rule="evenodd" />
<path d="M 247 353 L 246 354 L 246 382 L 251 382 L 252 381 L 253 381 L 258 376 L 258 374 L 259 373 L 259 362 L 258 361 L 258 360 L 257 359 L 257 358 L 254 355 L 253 355 L 252 354 L 251 354 L 250 353 Z" fill-rule="evenodd" />
<path d="M 400 352 L 400 421 L 403 421 L 404 420 L 405 420 L 409 416 L 409 415 L 410 414 L 410 413 L 411 412 L 411 411 L 412 410 L 412 408 L 413 407 L 413 404 L 414 403 L 414 398 L 415 397 L 415 382 L 416 381 L 415 380 L 415 369 L 414 368 L 414 365 L 413 364 L 413 362 L 412 361 L 412 359 L 411 358 L 411 357 L 406 352 Z" fill-rule="evenodd" />
<path d="M 636 106 L 636 109 L 635 110 L 635 112 L 634 113 L 634 116 L 633 117 L 633 121 L 632 122 L 632 125 L 631 126 L 631 130 L 630 131 L 630 134 L 629 135 L 629 138 L 628 139 L 628 143 L 627 144 L 627 147 L 626 148 L 626 152 L 625 153 L 625 155 L 624 156 L 624 159 L 623 160 L 623 163 L 622 164 L 622 168 L 621 169 L 625 169 L 626 170 L 653 170 L 654 169 L 653 168 L 653 166 L 652 165 L 652 162 L 651 161 L 651 159 L 650 158 L 650 156 L 649 155 L 649 153 L 648 152 L 648 150 L 647 149 L 647 147 L 646 146 L 646 144 L 645 143 L 645 140 L 644 139 L 644 137 L 643 136 L 643 133 L 642 132 L 642 129 L 641 128 L 641 126 L 640 125 L 640 122 L 639 121 L 639 118 L 638 117 L 638 114 L 637 113 L 637 109 L 636 108 Z" fill-rule="evenodd" />
<path d="M 492 69 L 491 70 L 490 70 L 490 186 L 491 187 L 491 223 L 495 223 L 496 222 L 497 222 L 498 221 L 500 221 L 501 220 L 502 220 L 505 217 L 506 217 L 507 216 L 507 215 L 511 211 L 511 210 L 512 209 L 512 208 L 513 207 L 513 206 L 515 204 L 515 203 L 516 202 L 516 200 L 517 199 L 517 197 L 518 196 L 518 195 L 519 194 L 519 192 L 520 191 L 520 188 L 521 187 L 521 184 L 522 183 L 522 179 L 523 178 L 523 173 L 524 172 L 524 165 L 525 164 L 525 151 L 526 150 L 526 119 L 525 118 L 525 111 L 524 110 L 524 106 L 523 105 L 523 101 L 522 100 L 522 97 L 521 96 L 521 94 L 520 93 L 520 92 L 519 91 L 519 89 L 518 88 L 518 87 L 517 86 L 517 84 L 515 82 L 515 81 L 514 80 L 514 79 L 511 76 L 511 75 L 509 73 L 508 73 L 506 71 L 505 71 L 504 70 L 501 70 L 500 69 Z" fill-rule="evenodd" />
<path d="M 370 69 L 369 70 L 368 70 L 368 188 L 369 189 L 369 223 L 372 223 L 373 222 L 375 222 L 376 221 L 378 221 L 379 220 L 380 220 L 383 217 L 384 217 L 384 216 L 388 212 L 388 211 L 390 209 L 390 208 L 391 207 L 391 206 L 392 205 L 392 204 L 393 203 L 393 202 L 394 201 L 394 200 L 395 199 L 395 197 L 396 196 L 396 194 L 397 193 L 397 191 L 398 190 L 398 188 L 399 187 L 399 184 L 400 183 L 400 179 L 401 178 L 401 172 L 402 171 L 402 163 L 403 162 L 403 149 L 404 148 L 404 120 L 403 119 L 403 112 L 402 111 L 402 106 L 401 105 L 401 101 L 400 100 L 400 98 L 399 97 L 399 95 L 398 94 L 398 92 L 397 91 L 397 89 L 396 88 L 396 87 L 395 86 L 395 85 L 394 84 L 394 83 L 393 82 L 393 81 L 392 80 L 392 79 L 384 71 L 383 71 L 382 70 L 379 70 L 378 69 Z" fill-rule="evenodd" />
<path d="M 0 0 L 0 983 L 1039 983 L 1039 0 Z M 316 875 L 317 874 L 318 875 L 318 876 L 317 877 L 316 876 Z M 879 812 L 880 812 L 882 814 L 888 814 L 889 815 L 891 815 L 892 816 L 893 816 L 898 821 L 898 822 L 900 824 L 900 826 L 901 827 L 901 830 L 902 831 L 902 834 L 903 835 L 903 836 L 905 838 L 903 840 L 903 841 L 902 842 L 902 854 L 901 855 L 901 861 L 900 862 L 900 865 L 899 866 L 899 869 L 898 870 L 898 871 L 897 872 L 897 873 L 896 874 L 896 875 L 895 876 L 895 877 L 894 878 L 894 879 L 886 887 L 885 887 L 883 889 L 881 889 L 880 890 L 872 890 L 871 889 L 865 889 L 864 888 L 864 882 L 865 881 L 869 885 L 871 885 L 872 886 L 876 886 L 877 885 L 879 885 L 880 884 L 881 884 L 882 883 L 883 883 L 886 880 L 886 879 L 887 878 L 887 877 L 888 876 L 888 874 L 889 873 L 889 871 L 890 870 L 890 868 L 891 867 L 891 859 L 889 859 L 888 860 L 883 860 L 881 862 L 880 862 L 879 861 L 876 861 L 875 860 L 872 860 L 871 859 L 869 859 L 861 851 L 861 850 L 860 849 L 860 846 L 859 845 L 859 843 L 858 842 L 858 841 L 857 841 L 856 840 L 856 839 L 858 837 L 858 835 L 859 834 L 859 830 L 860 829 L 860 826 L 861 825 L 861 824 L 862 823 L 862 822 L 866 818 L 867 818 L 869 816 L 871 816 L 872 815 L 874 815 L 875 814 L 877 814 Z M 628 813 L 629 812 L 641 812 L 642 813 L 644 813 L 645 814 L 645 819 L 644 820 L 641 817 L 640 817 L 639 816 L 634 816 L 633 817 L 631 817 L 630 818 L 629 818 L 628 819 L 627 819 L 624 822 L 624 823 L 622 825 L 622 826 L 621 827 L 621 829 L 620 830 L 620 832 L 619 833 L 619 836 L 618 837 L 618 842 L 617 843 L 618 843 L 619 842 L 621 842 L 622 841 L 625 841 L 627 839 L 628 839 L 629 840 L 631 840 L 632 841 L 636 841 L 637 842 L 639 842 L 640 843 L 641 843 L 647 849 L 647 850 L 648 851 L 648 852 L 649 853 L 649 855 L 650 856 L 650 859 L 653 862 L 651 864 L 651 867 L 650 868 L 650 872 L 649 873 L 649 875 L 648 876 L 648 877 L 647 878 L 647 879 L 642 884 L 641 884 L 640 885 L 639 885 L 638 886 L 636 886 L 635 887 L 632 887 L 630 889 L 629 889 L 628 888 L 626 888 L 625 887 L 620 887 L 619 886 L 618 886 L 617 885 L 616 885 L 611 880 L 611 879 L 609 877 L 609 875 L 608 874 L 608 872 L 607 871 L 607 865 L 606 864 L 606 863 L 604 861 L 606 859 L 606 858 L 607 857 L 607 846 L 608 845 L 608 840 L 609 839 L 609 836 L 610 835 L 610 833 L 611 832 L 611 830 L 612 829 L 612 828 L 613 827 L 613 826 L 614 825 L 614 824 L 617 821 L 617 820 L 621 816 L 622 816 L 623 815 L 624 815 L 626 813 Z M 359 812 L 377 812 L 378 813 L 380 813 L 381 814 L 382 814 L 389 821 L 389 822 L 390 823 L 390 826 L 391 827 L 391 830 L 392 831 L 392 832 L 390 834 L 390 838 L 389 839 L 389 840 L 388 841 L 388 842 L 383 847 L 382 847 L 381 848 L 380 848 L 379 849 L 378 849 L 377 850 L 376 850 L 379 850 L 380 851 L 382 851 L 383 852 L 384 852 L 387 855 L 387 856 L 389 858 L 389 859 L 390 860 L 390 863 L 391 864 L 391 868 L 392 869 L 392 871 L 390 873 L 390 876 L 389 877 L 389 878 L 388 879 L 388 880 L 383 885 L 382 885 L 381 886 L 380 886 L 379 887 L 377 887 L 376 888 L 374 888 L 373 889 L 358 889 L 357 888 L 357 886 L 358 885 L 358 883 L 359 882 L 359 880 L 360 879 L 360 877 L 361 876 L 361 874 L 362 873 L 363 874 L 363 879 L 364 880 L 364 882 L 366 884 L 367 884 L 368 885 L 370 885 L 371 884 L 374 884 L 375 883 L 376 883 L 377 882 L 378 882 L 380 880 L 380 879 L 381 878 L 381 877 L 382 876 L 382 862 L 381 861 L 381 860 L 377 856 L 376 856 L 375 855 L 374 855 L 373 854 L 371 854 L 370 853 L 367 853 L 366 852 L 363 852 L 362 851 L 362 848 L 363 847 L 367 847 L 368 846 L 371 846 L 372 845 L 374 845 L 375 844 L 376 844 L 377 843 L 378 843 L 381 840 L 381 839 L 382 838 L 382 823 L 381 822 L 381 821 L 377 817 L 376 817 L 375 816 L 373 816 L 372 815 L 369 815 L 368 816 L 367 816 L 364 819 L 364 821 L 363 822 L 363 827 L 362 828 L 361 827 L 361 826 L 360 825 L 360 823 L 359 822 L 359 819 L 358 818 L 358 817 L 357 816 L 357 814 Z M 153 812 L 154 812 L 156 814 L 160 814 L 161 815 L 162 815 L 169 822 L 169 823 L 170 824 L 170 825 L 172 827 L 172 829 L 173 830 L 173 831 L 174 832 L 174 835 L 175 836 L 175 840 L 176 841 L 176 847 L 177 848 L 177 849 L 179 851 L 177 853 L 177 854 L 176 855 L 176 859 L 175 860 L 175 865 L 174 866 L 174 869 L 173 870 L 173 872 L 172 873 L 172 874 L 171 875 L 171 876 L 170 877 L 170 878 L 167 881 L 167 882 L 165 884 L 164 884 L 162 886 L 161 886 L 160 887 L 158 887 L 157 888 L 155 888 L 154 889 L 153 889 L 152 888 L 150 888 L 149 887 L 147 887 L 146 886 L 145 886 L 144 885 L 143 885 L 140 882 L 140 881 L 138 879 L 138 878 L 136 876 L 136 875 L 135 874 L 135 873 L 134 872 L 134 870 L 133 869 L 133 866 L 132 865 L 132 860 L 131 859 L 131 854 L 129 852 L 129 850 L 130 849 L 130 848 L 131 847 L 131 842 L 132 841 L 132 837 L 133 836 L 133 833 L 134 832 L 134 830 L 135 829 L 135 827 L 136 826 L 136 825 L 138 823 L 138 822 L 144 816 L 145 816 L 146 815 L 147 815 L 148 814 L 151 814 Z M 793 812 L 794 811 L 797 811 L 798 812 L 802 812 L 803 813 L 804 813 L 806 815 L 807 815 L 811 819 L 811 820 L 813 822 L 813 824 L 814 825 L 814 826 L 815 827 L 815 828 L 816 829 L 816 830 L 814 832 L 814 834 L 813 835 L 813 837 L 812 838 L 812 839 L 807 844 L 806 844 L 805 845 L 804 845 L 803 846 L 802 846 L 801 847 L 800 847 L 800 848 L 801 848 L 802 849 L 803 849 L 805 851 L 806 851 L 813 858 L 813 860 L 814 861 L 814 863 L 815 864 L 815 865 L 816 866 L 816 867 L 818 869 L 815 872 L 815 874 L 814 875 L 814 877 L 813 878 L 813 879 L 812 880 L 812 881 L 807 886 L 806 886 L 805 887 L 804 887 L 803 888 L 801 888 L 800 889 L 797 889 L 796 890 L 793 890 L 792 889 L 788 889 L 787 888 L 786 888 L 785 887 L 784 887 L 783 886 L 782 886 L 778 882 L 778 881 L 776 879 L 776 878 L 775 877 L 775 876 L 774 875 L 774 872 L 771 869 L 773 867 L 773 866 L 774 865 L 774 863 L 775 862 L 775 859 L 777 857 L 777 856 L 783 850 L 784 850 L 786 848 L 787 848 L 786 847 L 785 847 L 784 846 L 783 846 L 779 842 L 779 841 L 778 840 L 778 839 L 777 838 L 777 837 L 776 836 L 776 831 L 774 829 L 774 827 L 776 825 L 776 824 L 777 823 L 777 822 L 779 820 L 779 819 L 783 815 L 784 815 L 786 813 L 787 813 L 788 812 L 793 812 L 794 813 L 793 814 L 791 814 L 790 815 L 789 815 L 786 818 L 786 819 L 784 821 L 784 822 L 783 823 L 783 834 L 784 835 L 784 837 L 790 843 L 791 843 L 792 844 L 793 844 L 794 845 L 796 845 L 798 843 L 799 843 L 800 842 L 801 842 L 805 838 L 805 837 L 806 836 L 806 834 L 807 833 L 807 824 L 806 823 L 806 821 L 804 819 L 804 818 L 800 814 L 797 814 L 796 813 L 794 813 Z M 223 812 L 224 811 L 234 811 L 235 812 L 234 813 L 234 814 L 233 815 L 233 816 L 232 817 L 232 837 L 231 838 L 231 842 L 232 843 L 232 846 L 233 847 L 233 848 L 235 850 L 232 853 L 232 860 L 231 861 L 232 862 L 232 883 L 233 884 L 233 886 L 234 887 L 234 888 L 233 889 L 220 889 L 219 888 L 221 886 L 221 885 L 222 884 L 222 883 L 223 882 L 223 853 L 220 850 L 222 848 L 222 847 L 223 846 L 223 823 L 217 823 L 216 822 L 216 820 L 217 819 L 218 819 L 219 818 L 220 818 L 222 816 L 222 815 L 223 814 Z M 461 810 L 462 809 L 468 809 L 469 810 L 469 861 L 480 861 L 481 862 L 481 864 L 480 865 L 479 865 L 478 864 L 469 864 L 469 880 L 470 881 L 470 882 L 474 886 L 473 887 L 458 887 L 457 886 L 461 882 L 461 863 L 433 863 L 432 862 L 432 861 L 443 850 L 443 849 L 446 846 L 446 845 L 447 844 L 447 843 L 449 841 L 449 840 L 450 839 L 450 838 L 451 837 L 451 836 L 452 835 L 452 834 L 453 833 L 453 832 L 454 831 L 454 829 L 455 828 L 455 827 L 456 826 L 456 824 L 457 823 L 457 821 L 458 820 L 458 819 L 459 818 L 459 816 L 460 815 L 460 814 L 461 813 Z M 726 809 L 727 808 L 731 812 L 732 812 L 733 813 L 733 816 L 732 817 L 732 818 L 729 821 L 729 822 L 726 825 L 726 826 L 724 828 L 724 829 L 722 831 L 722 832 L 721 833 L 721 834 L 719 836 L 719 837 L 718 838 L 718 839 L 717 840 L 717 841 L 727 841 L 728 842 L 728 843 L 729 844 L 728 845 L 726 845 L 725 844 L 716 844 L 716 845 L 715 846 L 715 847 L 714 848 L 714 850 L 713 851 L 713 854 L 712 855 L 712 857 L 711 858 L 711 861 L 710 862 L 710 865 L 709 866 L 709 870 L 708 871 L 708 876 L 707 877 L 707 883 L 708 884 L 708 885 L 709 886 L 709 887 L 710 888 L 709 889 L 694 889 L 693 888 L 695 886 L 696 886 L 697 885 L 697 884 L 698 883 L 698 882 L 699 881 L 699 876 L 700 875 L 700 870 L 701 869 L 701 866 L 702 865 L 702 861 L 703 860 L 703 857 L 704 856 L 704 853 L 705 852 L 705 850 L 706 849 L 706 847 L 707 846 L 707 845 L 706 844 L 697 844 L 696 845 L 695 845 L 694 844 L 694 841 L 695 840 L 696 840 L 697 841 L 708 841 L 708 840 L 709 839 L 709 838 L 710 837 L 710 836 L 711 835 L 711 834 L 712 833 L 712 832 L 714 830 L 714 829 L 715 828 L 715 827 L 717 825 L 717 824 L 719 822 L 719 821 L 722 818 L 722 816 L 720 816 L 719 815 L 703 815 L 702 816 L 698 816 L 697 817 L 696 817 L 693 820 L 692 819 L 692 813 L 693 812 L 721 812 L 722 811 L 723 811 L 725 809 Z M 296 809 L 297 808 L 301 812 L 304 812 L 305 813 L 307 813 L 308 814 L 309 814 L 316 821 L 316 822 L 317 823 L 317 825 L 318 826 L 318 835 L 317 836 L 317 838 L 316 839 L 316 841 L 315 842 L 315 843 L 313 845 L 313 846 L 304 855 L 304 860 L 303 861 L 300 861 L 299 862 L 298 862 L 295 865 L 295 866 L 290 871 L 290 872 L 287 875 L 287 876 L 286 877 L 286 878 L 285 879 L 285 880 L 284 881 L 284 883 L 283 884 L 283 885 L 284 886 L 287 886 L 288 887 L 305 887 L 306 886 L 308 886 L 309 885 L 310 885 L 312 883 L 312 882 L 314 880 L 314 879 L 315 878 L 315 877 L 316 876 L 317 877 L 317 882 L 316 883 L 316 887 L 313 890 L 299 890 L 296 893 L 295 893 L 292 890 L 282 890 L 281 889 L 276 889 L 275 888 L 275 880 L 276 879 L 276 878 L 277 877 L 277 876 L 278 875 L 278 874 L 280 872 L 280 871 L 284 867 L 284 866 L 291 859 L 291 858 L 292 857 L 292 854 L 293 853 L 297 853 L 301 849 L 301 848 L 304 845 L 304 844 L 305 843 L 305 842 L 306 841 L 306 840 L 307 839 L 307 837 L 308 836 L 308 835 L 309 834 L 309 825 L 308 824 L 308 822 L 307 821 L 307 820 L 301 814 L 298 814 L 297 813 L 296 813 L 295 814 L 292 814 L 291 815 L 290 815 L 287 818 L 286 818 L 284 820 L 284 821 L 282 823 L 282 824 L 281 825 L 281 826 L 280 827 L 280 829 L 279 830 L 279 832 L 278 833 L 278 835 L 277 836 L 276 835 L 276 818 L 277 817 L 282 817 L 283 816 L 284 816 L 286 814 L 287 814 L 288 813 L 290 813 L 291 812 L 294 812 L 296 810 Z M 531 806 L 532 806 L 533 807 L 534 807 L 535 808 L 560 808 L 561 809 L 561 814 L 560 815 L 560 816 L 559 817 L 558 817 L 555 814 L 554 814 L 553 813 L 551 813 L 550 812 L 547 812 L 546 811 L 530 811 L 530 839 L 532 837 L 533 837 L 534 836 L 537 836 L 538 835 L 540 835 L 542 833 L 544 835 L 546 835 L 547 836 L 550 836 L 551 837 L 552 837 L 553 838 L 554 838 L 558 842 L 558 843 L 560 845 L 560 846 L 561 847 L 561 849 L 562 850 L 562 853 L 563 854 L 563 857 L 565 859 L 565 860 L 563 862 L 563 864 L 562 865 L 562 868 L 561 869 L 561 871 L 560 872 L 560 874 L 558 876 L 558 877 L 552 883 L 550 883 L 549 884 L 548 884 L 547 885 L 543 885 L 542 886 L 541 886 L 540 887 L 538 885 L 534 885 L 533 884 L 531 884 L 530 883 L 529 883 L 528 882 L 527 882 L 525 880 L 523 880 L 522 879 L 521 880 L 520 879 L 520 871 L 521 870 L 523 872 L 523 873 L 529 879 L 530 879 L 531 880 L 532 880 L 533 881 L 538 881 L 539 882 L 541 882 L 542 881 L 545 881 L 546 880 L 547 880 L 551 876 L 551 875 L 552 874 L 552 872 L 553 871 L 553 868 L 554 867 L 554 852 L 553 851 L 553 849 L 552 848 L 552 847 L 551 846 L 551 845 L 548 842 L 547 842 L 546 841 L 545 841 L 544 840 L 538 840 L 537 841 L 535 841 L 534 842 L 533 842 L 529 846 L 529 847 L 528 848 L 528 849 L 527 850 L 527 852 L 525 854 L 521 854 L 520 853 L 521 852 L 521 851 L 522 850 L 522 838 L 523 837 L 523 813 L 522 812 L 522 810 L 521 809 L 522 808 L 529 808 Z M 664 749 L 665 748 L 666 749 L 665 750 Z M 795 660 L 796 659 L 797 659 L 801 663 L 813 663 L 814 662 L 815 662 L 818 659 L 821 662 L 821 663 L 822 663 L 823 664 L 839 664 L 840 665 L 838 667 L 838 668 L 836 670 L 836 671 L 835 672 L 835 673 L 834 674 L 834 675 L 833 676 L 833 678 L 832 679 L 832 680 L 831 681 L 831 682 L 830 683 L 830 685 L 829 686 L 829 687 L 828 688 L 828 690 L 827 691 L 827 692 L 826 693 L 826 694 L 825 695 L 825 696 L 824 697 L 824 705 L 823 706 L 820 706 L 819 707 L 819 708 L 818 709 L 818 710 L 816 712 L 816 713 L 815 714 L 815 715 L 814 716 L 814 717 L 813 718 L 813 719 L 812 720 L 812 721 L 811 722 L 811 723 L 810 724 L 810 726 L 809 727 L 809 729 L 836 729 L 840 725 L 841 726 L 841 741 L 840 742 L 839 741 L 839 740 L 835 736 L 827 736 L 826 737 L 825 737 L 822 740 L 818 736 L 805 736 L 804 735 L 803 736 L 801 736 L 800 735 L 799 736 L 798 735 L 797 735 L 796 734 L 797 733 L 797 732 L 798 731 L 798 730 L 800 728 L 800 727 L 801 726 L 801 725 L 803 723 L 803 722 L 804 721 L 804 720 L 806 718 L 806 717 L 807 716 L 807 715 L 808 714 L 808 713 L 809 712 L 809 711 L 810 710 L 810 709 L 811 708 L 811 707 L 812 706 L 812 704 L 813 703 L 813 702 L 812 701 L 812 699 L 811 698 L 811 697 L 812 696 L 816 696 L 818 694 L 818 693 L 819 692 L 819 691 L 820 690 L 820 688 L 821 687 L 821 686 L 822 685 L 822 684 L 823 683 L 823 681 L 824 680 L 824 679 L 825 678 L 825 676 L 826 675 L 826 674 L 827 673 L 827 670 L 800 670 L 797 673 L 796 673 L 795 672 Z M 203 659 L 204 658 L 220 658 L 222 660 L 221 661 L 221 662 L 220 663 L 220 665 L 219 666 L 219 669 L 218 670 L 218 672 L 217 673 L 215 671 L 215 665 L 214 664 L 214 663 L 213 662 L 212 662 L 211 661 L 205 661 L 201 665 L 201 667 L 200 668 L 200 675 L 201 676 L 201 677 L 202 678 L 202 679 L 205 682 L 205 683 L 209 687 L 209 688 L 217 696 L 218 696 L 219 697 L 219 702 L 220 703 L 220 705 L 221 706 L 221 709 L 222 710 L 222 720 L 221 721 L 221 723 L 220 724 L 220 725 L 219 726 L 219 727 L 213 733 L 212 733 L 211 734 L 208 734 L 207 735 L 203 735 L 202 734 L 196 734 L 195 733 L 195 731 L 194 730 L 194 728 L 195 727 L 195 722 L 196 721 L 197 722 L 197 724 L 198 725 L 198 726 L 200 728 L 200 729 L 201 729 L 202 730 L 203 730 L 204 731 L 206 731 L 207 730 L 208 730 L 209 729 L 210 729 L 211 728 L 211 727 L 212 726 L 212 725 L 213 724 L 213 721 L 214 720 L 214 713 L 213 712 L 213 709 L 212 708 L 212 706 L 211 705 L 211 704 L 210 703 L 210 702 L 206 698 L 205 698 L 204 697 L 203 697 L 202 696 L 202 694 L 201 693 L 201 692 L 200 691 L 200 690 L 198 688 L 198 687 L 195 684 L 195 683 L 194 682 L 194 681 L 193 680 L 193 679 L 192 678 L 192 668 L 193 667 L 193 666 L 198 661 L 199 661 L 201 659 Z M 704 658 L 705 657 L 721 657 L 722 658 L 722 659 L 718 663 L 718 670 L 719 671 L 719 675 L 720 676 L 720 679 L 721 680 L 721 682 L 722 683 L 722 686 L 723 687 L 723 688 L 724 689 L 724 690 L 725 691 L 725 692 L 726 693 L 726 694 L 727 695 L 727 696 L 729 698 L 729 699 L 731 697 L 731 696 L 732 695 L 732 694 L 733 693 L 733 692 L 734 691 L 734 690 L 735 689 L 735 688 L 736 687 L 736 685 L 737 684 L 737 682 L 738 681 L 738 679 L 739 678 L 739 675 L 740 674 L 740 666 L 741 665 L 740 664 L 740 663 L 739 662 L 739 661 L 736 658 L 737 657 L 754 657 L 755 658 L 753 660 L 752 660 L 752 661 L 750 663 L 750 664 L 749 665 L 749 666 L 748 667 L 748 671 L 747 672 L 747 675 L 746 676 L 746 679 L 745 680 L 745 682 L 744 683 L 744 689 L 743 690 L 743 691 L 744 692 L 744 694 L 742 696 L 741 696 L 739 698 L 738 698 L 738 699 L 736 701 L 736 703 L 735 704 L 735 706 L 734 707 L 734 728 L 735 729 L 735 730 L 738 733 L 738 734 L 737 735 L 721 735 L 720 734 L 723 731 L 723 730 L 724 729 L 724 726 L 725 725 L 725 714 L 724 713 L 724 705 L 723 704 L 723 702 L 722 701 L 722 700 L 719 697 L 718 697 L 717 696 L 716 696 L 715 695 L 715 685 L 714 684 L 714 681 L 713 680 L 713 677 L 712 676 L 712 672 L 711 671 L 711 668 L 710 667 L 710 664 L 708 662 L 708 661 L 707 661 Z M 618 658 L 619 657 L 632 657 L 633 658 L 632 659 L 632 665 L 633 666 L 633 669 L 634 670 L 634 673 L 635 674 L 635 677 L 636 678 L 636 681 L 637 682 L 637 684 L 638 685 L 638 687 L 639 688 L 639 689 L 640 689 L 640 688 L 641 687 L 641 686 L 642 685 L 642 683 L 643 682 L 643 679 L 644 678 L 644 674 L 645 673 L 645 669 L 646 668 L 646 665 L 647 664 L 647 659 L 646 658 L 647 657 L 660 657 L 661 658 L 660 659 L 659 659 L 657 661 L 657 662 L 656 663 L 656 664 L 655 665 L 655 667 L 654 668 L 654 670 L 653 671 L 653 673 L 652 674 L 652 677 L 651 678 L 651 681 L 650 682 L 650 687 L 651 688 L 651 690 L 650 691 L 649 691 L 648 692 L 648 693 L 645 696 L 646 697 L 646 698 L 647 699 L 647 700 L 648 700 L 649 701 L 650 701 L 651 702 L 651 704 L 649 706 L 649 711 L 650 712 L 650 713 L 651 714 L 651 715 L 652 716 L 652 718 L 653 719 L 653 721 L 654 722 L 654 723 L 655 724 L 655 725 L 656 726 L 656 728 L 657 729 L 657 731 L 658 732 L 658 733 L 659 734 L 659 736 L 660 737 L 660 738 L 661 739 L 661 740 L 662 741 L 662 742 L 663 743 L 663 744 L 664 745 L 664 746 L 665 747 L 665 748 L 664 749 L 663 749 L 658 744 L 657 744 L 656 743 L 656 742 L 653 739 L 653 738 L 652 737 L 652 736 L 651 735 L 651 734 L 650 733 L 650 732 L 649 731 L 649 730 L 648 729 L 648 727 L 647 726 L 647 724 L 646 723 L 646 721 L 645 720 L 645 719 L 644 718 L 644 716 L 643 715 L 643 713 L 642 712 L 642 711 L 641 710 L 641 709 L 640 708 L 640 707 L 639 706 L 639 707 L 638 708 L 638 710 L 637 711 L 637 713 L 636 714 L 636 716 L 635 717 L 635 719 L 634 720 L 634 722 L 633 723 L 633 726 L 632 727 L 632 733 L 633 734 L 632 735 L 619 735 L 618 734 L 619 733 L 620 733 L 622 731 L 622 730 L 623 729 L 623 727 L 624 726 L 624 724 L 625 723 L 625 721 L 626 720 L 626 718 L 627 717 L 627 714 L 628 713 L 628 710 L 629 709 L 629 707 L 628 706 L 628 704 L 627 703 L 630 700 L 631 700 L 631 699 L 633 697 L 633 695 L 631 693 L 631 692 L 630 691 L 629 691 L 627 689 L 628 688 L 628 687 L 629 686 L 629 682 L 628 681 L 628 678 L 627 677 L 627 675 L 626 674 L 626 671 L 625 670 L 625 668 L 624 667 L 624 665 L 623 664 L 623 663 L 622 662 L 622 661 L 620 659 L 619 659 Z M 519 658 L 520 657 L 532 657 L 533 658 L 532 659 L 532 667 L 533 668 L 533 672 L 534 673 L 534 678 L 535 679 L 535 684 L 536 685 L 536 691 L 537 692 L 537 698 L 538 699 L 538 703 L 539 703 L 539 701 L 540 700 L 540 698 L 541 697 L 541 694 L 542 693 L 542 690 L 543 689 L 543 686 L 544 685 L 544 682 L 545 681 L 545 679 L 546 678 L 546 675 L 547 674 L 547 672 L 548 671 L 550 673 L 550 675 L 551 676 L 551 679 L 552 680 L 552 683 L 553 684 L 553 686 L 554 687 L 554 690 L 555 691 L 555 693 L 556 694 L 556 697 L 557 698 L 557 701 L 558 702 L 558 704 L 558 702 L 559 701 L 559 696 L 560 695 L 560 691 L 561 690 L 561 685 L 562 684 L 562 678 L 563 677 L 563 671 L 564 670 L 564 665 L 565 664 L 565 660 L 564 659 L 564 658 L 565 657 L 576 657 L 577 658 L 573 662 L 573 664 L 572 665 L 572 668 L 571 669 L 571 673 L 570 674 L 570 678 L 569 679 L 569 683 L 568 684 L 568 688 L 567 689 L 567 691 L 568 692 L 568 694 L 569 695 L 569 696 L 566 699 L 566 700 L 565 701 L 565 704 L 564 705 L 564 709 L 563 710 L 563 714 L 562 715 L 562 720 L 561 721 L 561 726 L 560 727 L 560 732 L 559 733 L 559 734 L 558 735 L 557 734 L 557 732 L 556 731 L 556 728 L 555 727 L 555 723 L 554 722 L 554 719 L 553 718 L 553 714 L 552 713 L 552 709 L 551 708 L 551 704 L 550 703 L 550 700 L 549 699 L 549 696 L 548 695 L 548 694 L 548 697 L 547 698 L 547 702 L 546 703 L 546 707 L 545 708 L 545 712 L 544 713 L 544 716 L 543 717 L 543 720 L 542 721 L 542 725 L 541 726 L 541 730 L 540 731 L 540 734 L 539 735 L 537 733 L 537 728 L 536 727 L 536 722 L 535 721 L 535 717 L 534 716 L 534 711 L 533 710 L 533 705 L 532 704 L 532 701 L 531 700 L 531 699 L 528 696 L 528 694 L 529 693 L 529 692 L 530 691 L 530 689 L 529 688 L 529 685 L 528 684 L 528 680 L 527 679 L 527 675 L 526 674 L 526 671 L 525 670 L 525 667 L 524 666 L 524 663 L 523 662 L 523 661 L 521 659 L 520 659 Z M 442 658 L 443 657 L 454 657 L 455 658 L 455 659 L 454 660 L 454 665 L 455 666 L 455 671 L 456 672 L 456 678 L 457 679 L 457 684 L 458 685 L 458 690 L 459 691 L 459 697 L 460 698 L 460 703 L 461 704 L 461 699 L 462 698 L 462 692 L 463 691 L 463 686 L 464 685 L 464 680 L 465 679 L 465 674 L 466 673 L 466 668 L 467 667 L 467 659 L 466 658 L 467 657 L 479 657 L 480 658 L 479 659 L 478 659 L 477 660 L 477 661 L 476 662 L 476 663 L 475 664 L 475 666 L 474 667 L 474 670 L 473 671 L 473 674 L 472 675 L 472 679 L 471 680 L 471 684 L 470 685 L 470 694 L 471 695 L 471 696 L 469 698 L 469 699 L 468 700 L 468 701 L 467 702 L 467 705 L 466 706 L 466 711 L 465 712 L 465 717 L 464 718 L 464 722 L 463 723 L 463 727 L 462 728 L 462 733 L 461 734 L 459 732 L 459 728 L 458 727 L 458 723 L 457 722 L 457 716 L 456 715 L 456 711 L 455 710 L 455 706 L 454 705 L 454 701 L 453 700 L 453 699 L 450 696 L 450 695 L 451 694 L 451 692 L 452 691 L 452 690 L 451 689 L 451 684 L 450 683 L 450 679 L 449 678 L 449 675 L 448 674 L 448 670 L 447 669 L 447 666 L 446 665 L 446 663 L 445 662 L 445 661 Z M 348 658 L 349 657 L 364 657 L 365 658 L 363 660 L 363 661 L 362 662 L 362 663 L 361 664 L 361 705 L 362 706 L 362 712 L 363 713 L 363 716 L 364 717 L 364 720 L 365 721 L 365 722 L 366 723 L 366 724 L 367 725 L 367 726 L 369 728 L 369 729 L 370 730 L 371 730 L 372 731 L 378 731 L 382 727 L 382 726 L 383 725 L 383 724 L 384 723 L 384 721 L 385 720 L 385 717 L 386 716 L 386 713 L 387 712 L 387 706 L 388 705 L 388 666 L 387 665 L 387 661 L 384 658 L 385 657 L 400 657 L 401 658 L 397 662 L 397 691 L 398 692 L 398 694 L 399 695 L 399 696 L 400 697 L 398 699 L 398 700 L 397 701 L 397 706 L 396 707 L 396 712 L 395 713 L 395 716 L 394 717 L 394 718 L 393 719 L 393 720 L 392 721 L 392 722 L 391 723 L 391 724 L 389 726 L 389 727 L 385 731 L 384 731 L 382 733 L 379 733 L 378 734 L 376 734 L 375 735 L 374 735 L 373 734 L 371 734 L 370 733 L 368 733 L 367 732 L 366 732 L 359 725 L 359 724 L 357 722 L 357 721 L 356 720 L 356 718 L 355 717 L 355 715 L 354 714 L 354 711 L 353 710 L 353 705 L 352 704 L 352 700 L 351 699 L 351 698 L 350 697 L 350 696 L 351 695 L 351 694 L 352 693 L 352 691 L 353 690 L 353 670 L 352 669 L 352 662 L 351 661 L 351 660 L 350 659 L 349 659 Z M 282 656 L 283 655 L 285 655 L 286 656 L 287 656 L 288 657 L 306 657 L 307 658 L 307 667 L 306 668 L 305 667 L 305 666 L 300 661 L 299 661 L 298 660 L 292 660 L 291 659 L 290 660 L 289 660 L 289 670 L 288 671 L 288 690 L 289 691 L 289 692 L 290 693 L 290 694 L 292 696 L 292 697 L 290 699 L 290 700 L 289 701 L 289 702 L 288 703 L 288 720 L 289 721 L 289 729 L 290 730 L 290 731 L 292 733 L 292 734 L 291 735 L 277 735 L 276 734 L 276 733 L 278 731 L 278 730 L 279 729 L 279 722 L 280 721 L 280 703 L 279 702 L 279 701 L 278 700 L 278 699 L 276 697 L 276 696 L 278 694 L 278 693 L 279 692 L 279 691 L 280 690 L 280 669 L 279 668 L 279 660 L 273 660 L 272 661 L 270 661 L 269 662 L 268 662 L 263 667 L 262 666 L 262 658 L 263 657 L 280 657 L 281 656 Z M 751 586 L 752 585 L 753 586 L 752 587 Z M 807 503 L 809 503 L 810 504 L 816 504 L 817 505 L 821 505 L 822 506 L 823 506 L 824 507 L 825 507 L 831 513 L 831 515 L 832 516 L 832 522 L 833 523 L 833 524 L 835 526 L 832 529 L 832 531 L 831 532 L 831 534 L 830 535 L 830 537 L 828 539 L 828 540 L 824 544 L 824 546 L 829 551 L 828 552 L 828 554 L 827 555 L 827 558 L 828 559 L 828 561 L 829 562 L 829 564 L 830 565 L 830 567 L 831 568 L 831 570 L 832 571 L 832 573 L 833 574 L 833 576 L 834 577 L 834 578 L 835 579 L 835 581 L 836 582 L 836 583 L 837 584 L 837 585 L 838 586 L 838 587 L 839 588 L 839 589 L 838 590 L 833 585 L 833 584 L 830 581 L 830 580 L 828 578 L 828 577 L 827 576 L 827 575 L 826 574 L 826 573 L 825 572 L 825 571 L 824 570 L 824 568 L 823 567 L 823 566 L 822 565 L 822 564 L 821 563 L 821 561 L 820 560 L 820 558 L 819 557 L 819 555 L 818 554 L 818 553 L 817 552 L 817 550 L 816 549 L 816 548 L 812 548 L 811 549 L 809 549 L 808 550 L 808 568 L 809 569 L 809 575 L 810 576 L 810 577 L 812 579 L 811 580 L 797 580 L 796 579 L 798 577 L 798 576 L 799 575 L 799 572 L 800 571 L 800 549 L 799 548 L 799 546 L 797 544 L 797 542 L 798 541 L 798 540 L 799 539 L 799 538 L 800 537 L 800 515 L 799 514 L 799 511 L 798 510 L 798 509 L 796 507 L 797 506 L 803 506 L 804 505 L 805 505 Z M 729 504 L 730 503 L 731 503 L 732 504 L 736 504 L 737 505 L 738 505 L 739 506 L 740 506 L 745 511 L 745 512 L 747 514 L 747 515 L 748 516 L 748 517 L 749 518 L 749 519 L 750 520 L 750 521 L 751 522 L 751 525 L 752 526 L 752 530 L 753 531 L 753 537 L 754 538 L 754 539 L 756 541 L 754 543 L 754 544 L 753 545 L 753 551 L 752 552 L 752 556 L 751 557 L 751 560 L 750 561 L 750 563 L 749 564 L 749 565 L 748 566 L 748 567 L 747 568 L 747 569 L 745 571 L 745 572 L 746 573 L 746 574 L 747 575 L 747 576 L 748 577 L 748 578 L 749 579 L 749 580 L 751 582 L 751 583 L 752 584 L 752 585 L 751 586 L 750 585 L 749 585 L 740 576 L 739 577 L 738 577 L 737 578 L 733 578 L 731 580 L 730 579 L 729 579 L 728 578 L 725 578 L 724 577 L 722 577 L 715 570 L 715 569 L 714 568 L 714 567 L 713 566 L 713 565 L 712 564 L 712 563 L 711 562 L 711 560 L 710 559 L 710 556 L 709 555 L 709 550 L 708 549 L 708 544 L 706 542 L 706 541 L 707 540 L 707 539 L 708 538 L 708 534 L 709 533 L 709 528 L 710 527 L 710 524 L 711 523 L 711 521 L 712 520 L 712 519 L 713 518 L 713 516 L 714 515 L 714 514 L 717 511 L 717 510 L 720 507 L 721 507 L 722 506 L 723 506 L 724 505 L 726 505 L 727 504 Z M 639 504 L 640 503 L 641 503 L 642 504 L 648 504 L 649 505 L 653 505 L 654 506 L 655 506 L 656 507 L 657 507 L 658 508 L 659 508 L 662 511 L 662 512 L 663 513 L 663 514 L 664 515 L 664 520 L 665 521 L 665 523 L 666 524 L 666 525 L 667 526 L 664 529 L 664 532 L 663 533 L 663 535 L 662 536 L 662 537 L 661 538 L 661 539 L 654 546 L 653 546 L 652 547 L 650 547 L 649 548 L 645 548 L 644 549 L 641 549 L 641 574 L 642 575 L 642 576 L 643 577 L 643 578 L 644 579 L 643 580 L 630 580 L 629 579 L 630 578 L 630 577 L 631 576 L 631 575 L 632 574 L 632 565 L 633 564 L 633 550 L 632 549 L 632 547 L 629 544 L 629 543 L 630 542 L 630 541 L 631 540 L 631 539 L 632 538 L 632 536 L 633 535 L 633 523 L 632 522 L 632 512 L 630 510 L 630 509 L 629 508 L 629 507 L 630 506 L 635 506 L 636 505 L 637 505 L 638 504 Z M 562 504 L 563 503 L 564 504 L 567 504 L 568 505 L 570 505 L 572 507 L 573 507 L 577 511 L 577 512 L 580 515 L 580 516 L 581 517 L 581 519 L 582 520 L 582 521 L 583 522 L 583 524 L 584 525 L 584 528 L 585 529 L 585 536 L 586 537 L 586 539 L 588 541 L 588 542 L 586 544 L 586 546 L 585 547 L 585 553 L 584 554 L 584 557 L 583 558 L 583 561 L 582 562 L 582 563 L 581 564 L 581 566 L 579 568 L 579 569 L 577 571 L 577 572 L 574 575 L 573 575 L 571 577 L 570 577 L 569 578 L 566 578 L 565 579 L 564 579 L 563 580 L 562 579 L 561 579 L 560 578 L 557 578 L 556 577 L 555 577 L 554 576 L 553 576 L 548 571 L 548 570 L 546 568 L 546 567 L 545 566 L 545 565 L 544 564 L 544 562 L 543 561 L 543 559 L 542 558 L 542 554 L 541 553 L 541 547 L 540 546 L 540 544 L 538 542 L 538 541 L 540 539 L 540 537 L 541 536 L 541 530 L 542 529 L 542 525 L 543 524 L 543 522 L 544 521 L 544 519 L 545 518 L 545 517 L 546 516 L 546 515 L 547 514 L 547 513 L 553 507 L 554 507 L 556 505 L 558 505 L 559 504 Z M 289 504 L 290 503 L 304 503 L 305 504 L 304 505 L 304 506 L 303 507 L 303 508 L 302 509 L 302 513 L 301 514 L 301 535 L 302 536 L 302 537 L 303 538 L 303 539 L 305 541 L 305 542 L 302 545 L 302 546 L 301 547 L 301 574 L 302 575 L 302 579 L 304 579 L 305 578 L 307 578 L 309 576 L 310 576 L 315 571 L 315 570 L 316 569 L 316 568 L 317 567 L 318 568 L 318 572 L 319 573 L 319 579 L 318 580 L 317 580 L 316 581 L 315 580 L 314 580 L 313 581 L 312 581 L 311 580 L 306 580 L 305 581 L 304 581 L 302 583 L 299 583 L 297 581 L 295 581 L 294 580 L 289 580 L 288 579 L 290 577 L 290 576 L 291 575 L 291 574 L 292 573 L 292 562 L 293 561 L 293 549 L 292 548 L 292 546 L 291 545 L 291 544 L 289 542 L 289 540 L 291 538 L 291 537 L 292 536 L 292 534 L 293 533 L 293 522 L 292 521 L 292 510 L 291 509 L 291 508 L 290 507 L 290 506 L 289 505 Z M 205 504 L 206 503 L 208 503 L 209 504 L 209 506 L 208 507 L 208 515 L 207 516 L 207 543 L 208 544 L 209 544 L 210 543 L 212 543 L 213 542 L 213 541 L 215 539 L 215 538 L 216 537 L 216 536 L 218 534 L 218 533 L 219 532 L 219 531 L 221 529 L 221 528 L 223 526 L 223 525 L 224 524 L 224 523 L 225 522 L 225 521 L 227 519 L 227 518 L 228 517 L 228 516 L 229 515 L 229 514 L 230 513 L 230 512 L 232 510 L 232 509 L 233 508 L 233 507 L 234 506 L 234 505 L 233 504 L 234 503 L 246 503 L 247 504 L 246 505 L 245 505 L 243 507 L 242 507 L 242 508 L 240 510 L 240 511 L 239 512 L 239 513 L 238 514 L 238 515 L 236 517 L 236 518 L 235 519 L 235 520 L 234 521 L 234 522 L 233 523 L 233 524 L 231 526 L 231 527 L 230 528 L 230 529 L 229 530 L 229 531 L 227 533 L 227 534 L 226 535 L 226 536 L 225 537 L 225 538 L 224 539 L 224 540 L 223 541 L 223 542 L 222 543 L 222 545 L 228 551 L 227 552 L 227 554 L 226 555 L 226 558 L 227 559 L 227 561 L 228 562 L 228 564 L 229 565 L 229 567 L 230 568 L 230 570 L 231 571 L 231 572 L 232 573 L 232 575 L 233 576 L 233 578 L 234 579 L 234 580 L 235 581 L 235 583 L 236 584 L 236 585 L 237 586 L 237 587 L 238 588 L 238 589 L 237 590 L 233 586 L 233 585 L 230 582 L 230 581 L 228 579 L 228 578 L 226 576 L 226 575 L 225 574 L 225 573 L 224 572 L 224 571 L 223 570 L 223 568 L 222 567 L 222 566 L 221 565 L 221 563 L 220 562 L 220 561 L 219 560 L 219 558 L 218 557 L 218 555 L 217 554 L 217 553 L 215 551 L 215 550 L 213 548 L 210 548 L 209 549 L 207 549 L 207 569 L 208 570 L 208 574 L 209 575 L 209 576 L 211 578 L 211 579 L 210 580 L 196 580 L 195 579 L 196 578 L 196 577 L 198 575 L 198 572 L 199 571 L 199 548 L 198 547 L 198 546 L 195 543 L 197 541 L 197 540 L 198 539 L 198 538 L 199 537 L 199 515 L 198 514 L 198 511 L 197 510 L 197 509 L 195 507 L 196 506 L 200 506 L 201 505 L 203 505 L 204 504 Z M 452 503 L 453 502 L 461 502 L 462 503 L 469 503 L 470 504 L 470 508 L 471 509 L 471 512 L 472 513 L 472 516 L 473 517 L 473 520 L 474 521 L 474 523 L 475 524 L 475 527 L 476 528 L 476 531 L 477 532 L 477 535 L 478 536 L 478 539 L 479 540 L 479 542 L 480 543 L 480 545 L 481 546 L 481 549 L 482 550 L 482 552 L 483 553 L 483 554 L 484 555 L 484 557 L 485 558 L 485 560 L 486 561 L 486 562 L 486 506 L 484 504 L 484 503 L 485 502 L 496 502 L 497 503 L 497 505 L 495 507 L 495 511 L 494 512 L 494 536 L 495 537 L 495 538 L 496 539 L 496 540 L 497 541 L 497 542 L 494 545 L 494 591 L 493 592 L 492 591 L 492 590 L 490 588 L 490 587 L 489 586 L 489 585 L 488 584 L 488 583 L 487 582 L 487 581 L 486 580 L 486 579 L 485 578 L 485 576 L 484 575 L 484 574 L 483 573 L 483 572 L 482 571 L 482 569 L 481 568 L 481 567 L 480 566 L 480 565 L 479 564 L 479 563 L 478 562 L 478 560 L 477 559 L 477 557 L 476 556 L 476 554 L 475 553 L 475 551 L 474 550 L 474 549 L 473 548 L 473 546 L 472 545 L 472 542 L 471 541 L 471 539 L 470 538 L 470 536 L 469 535 L 469 533 L 468 532 L 468 530 L 467 529 L 467 527 L 466 526 L 466 524 L 466 573 L 467 574 L 467 576 L 468 577 L 468 578 L 469 579 L 468 580 L 455 580 L 454 579 L 454 578 L 456 576 L 456 575 L 457 574 L 457 569 L 458 568 L 458 545 L 457 544 L 457 543 L 455 541 L 455 540 L 457 538 L 457 537 L 458 536 L 458 512 L 457 511 L 457 510 L 456 509 L 456 508 L 452 504 Z M 360 503 L 361 502 L 375 502 L 376 503 L 376 504 L 377 505 L 377 509 L 378 510 L 378 514 L 379 515 L 379 519 L 380 520 L 380 524 L 381 525 L 381 528 L 382 529 L 382 532 L 383 533 L 383 536 L 384 537 L 384 540 L 385 541 L 385 539 L 386 538 L 386 535 L 387 534 L 387 530 L 388 529 L 388 527 L 389 526 L 389 523 L 390 522 L 390 518 L 391 517 L 391 513 L 392 512 L 392 508 L 393 507 L 393 504 L 395 502 L 409 502 L 410 503 L 410 504 L 406 508 L 406 509 L 405 510 L 405 511 L 404 512 L 404 536 L 405 537 L 405 539 L 407 541 L 404 544 L 404 573 L 405 574 L 405 576 L 408 579 L 407 580 L 395 580 L 394 579 L 394 578 L 396 576 L 396 551 L 397 550 L 397 524 L 396 525 L 396 528 L 395 529 L 395 531 L 394 532 L 394 535 L 393 536 L 393 539 L 392 540 L 392 542 L 391 543 L 391 546 L 390 547 L 390 550 L 389 551 L 389 553 L 388 554 L 388 557 L 387 558 L 387 560 L 386 561 L 386 563 L 385 564 L 383 562 L 383 560 L 382 559 L 382 556 L 381 555 L 381 552 L 380 551 L 380 549 L 379 548 L 379 546 L 378 545 L 378 543 L 377 542 L 377 539 L 376 538 L 376 535 L 375 534 L 375 531 L 374 530 L 374 527 L 373 526 L 373 525 L 373 571 L 374 572 L 374 576 L 375 577 L 375 578 L 376 579 L 375 580 L 363 580 L 362 579 L 363 578 L 363 577 L 364 576 L 364 574 L 365 573 L 365 564 L 366 563 L 366 546 L 365 545 L 365 544 L 363 542 L 363 540 L 365 538 L 365 511 L 364 510 L 364 509 L 362 507 L 362 506 L 360 504 Z M 870 352 L 871 351 L 872 351 L 873 352 L 874 351 L 877 351 L 878 352 L 877 353 L 876 353 L 874 355 L 873 355 L 870 358 L 870 359 L 869 360 L 867 358 L 867 355 L 866 354 L 866 353 L 867 352 Z M 640 352 L 641 351 L 651 351 L 652 352 L 652 353 L 651 354 L 651 356 L 650 357 L 650 359 L 649 360 L 649 361 L 648 362 L 647 361 L 647 358 L 646 357 L 646 356 L 644 354 L 643 354 L 642 353 L 641 353 Z M 481 352 L 482 351 L 484 351 L 485 352 L 492 352 L 493 353 L 493 354 L 492 355 L 492 358 L 490 360 L 488 358 L 488 357 L 487 357 L 484 354 L 483 354 Z M 337 352 L 338 351 L 346 351 L 347 352 L 347 354 L 346 355 L 346 357 L 345 358 L 345 360 L 344 361 L 342 359 L 342 357 L 341 356 L 341 355 L 339 353 L 338 353 Z M 638 349 L 640 351 L 639 352 L 638 352 L 637 353 L 636 353 L 635 354 L 634 354 L 632 356 L 632 357 L 631 358 L 631 359 L 630 360 L 630 361 L 629 362 L 629 363 L 628 364 L 628 367 L 627 368 L 627 371 L 626 372 L 626 378 L 625 379 L 625 398 L 626 399 L 626 404 L 627 405 L 627 408 L 628 409 L 628 411 L 629 412 L 629 413 L 630 414 L 630 416 L 632 418 L 632 419 L 634 421 L 635 421 L 636 422 L 642 422 L 649 415 L 649 414 L 650 413 L 650 412 L 651 411 L 651 409 L 652 408 L 652 404 L 653 403 L 653 394 L 650 394 L 649 393 L 639 393 L 638 394 L 637 394 L 636 395 L 636 396 L 633 399 L 632 398 L 632 396 L 631 395 L 631 391 L 632 390 L 633 390 L 634 389 L 663 389 L 664 390 L 664 391 L 663 392 L 663 397 L 662 398 L 662 404 L 661 405 L 661 408 L 660 409 L 660 411 L 659 412 L 659 413 L 657 415 L 657 416 L 652 421 L 651 421 L 649 423 L 648 423 L 647 424 L 644 424 L 643 425 L 639 425 L 638 426 L 637 426 L 636 425 L 635 425 L 634 424 L 632 424 L 631 423 L 630 423 L 629 422 L 628 422 L 623 417 L 623 416 L 622 415 L 622 414 L 620 412 L 620 411 L 619 410 L 619 408 L 618 407 L 618 405 L 617 404 L 617 401 L 616 400 L 616 393 L 615 392 L 615 390 L 613 388 L 613 387 L 615 385 L 615 383 L 616 382 L 616 374 L 617 373 L 617 370 L 618 369 L 618 367 L 619 366 L 619 365 L 620 364 L 620 363 L 622 361 L 622 360 L 624 358 L 624 357 L 627 354 L 628 354 L 630 352 L 631 352 L 632 351 L 636 351 Z M 477 350 L 478 349 L 480 349 L 482 351 L 481 352 L 480 352 L 480 360 L 479 361 L 479 385 L 480 385 L 481 384 L 483 384 L 484 383 L 487 383 L 488 382 L 489 382 L 490 383 L 490 389 L 489 390 L 488 389 L 485 389 L 484 388 L 479 388 L 479 410 L 480 411 L 480 421 L 482 421 L 484 419 L 485 419 L 486 418 L 487 418 L 489 416 L 490 416 L 494 412 L 495 413 L 495 421 L 494 422 L 485 422 L 484 423 L 482 423 L 480 425 L 478 425 L 477 424 L 476 424 L 475 423 L 473 423 L 472 422 L 469 422 L 468 421 L 469 420 L 469 419 L 470 418 L 470 417 L 471 416 L 471 405 L 472 404 L 472 395 L 471 394 L 471 391 L 468 388 L 468 386 L 470 384 L 470 383 L 471 382 L 471 359 L 470 358 L 470 356 L 468 354 L 468 353 L 469 352 L 472 352 L 473 351 L 475 351 L 476 350 Z M 880 348 L 882 350 L 883 350 L 884 351 L 890 351 L 891 352 L 891 353 L 889 355 L 889 356 L 888 357 L 888 382 L 889 383 L 889 384 L 891 386 L 889 388 L 889 389 L 888 390 L 888 392 L 887 393 L 887 408 L 888 409 L 888 415 L 889 416 L 889 417 L 890 418 L 890 419 L 891 420 L 890 421 L 884 421 L 882 423 L 881 423 L 879 425 L 877 425 L 876 426 L 873 426 L 871 424 L 870 424 L 868 422 L 867 422 L 866 421 L 865 421 L 864 420 L 859 420 L 857 418 L 857 415 L 856 414 L 856 409 L 857 408 L 865 416 L 866 416 L 867 417 L 868 417 L 869 418 L 871 418 L 872 419 L 874 419 L 875 420 L 879 420 L 880 419 L 880 365 L 879 364 L 879 352 L 878 352 L 877 351 Z M 799 349 L 800 348 L 815 348 L 816 349 L 813 352 L 813 353 L 812 354 L 812 382 L 813 383 L 813 384 L 814 385 L 814 386 L 815 387 L 812 390 L 812 419 L 813 420 L 813 422 L 814 423 L 814 424 L 815 425 L 814 426 L 800 426 L 799 425 L 802 422 L 802 421 L 803 420 L 803 414 L 804 413 L 804 390 L 801 387 L 801 386 L 803 384 L 803 382 L 804 381 L 804 362 L 803 361 L 803 353 L 802 352 L 802 351 L 801 350 L 800 350 Z M 704 349 L 705 348 L 720 348 L 721 349 L 718 352 L 718 355 L 717 356 L 717 385 L 720 385 L 721 384 L 724 384 L 725 383 L 732 383 L 733 384 L 737 384 L 738 385 L 739 385 L 739 355 L 738 354 L 738 352 L 735 349 L 736 348 L 751 348 L 752 349 L 749 352 L 749 353 L 748 354 L 748 383 L 749 384 L 749 385 L 751 387 L 749 389 L 748 389 L 748 390 L 747 391 L 747 415 L 748 416 L 748 420 L 749 421 L 749 422 L 750 423 L 750 424 L 751 425 L 750 426 L 736 426 L 735 425 L 736 424 L 736 423 L 738 421 L 738 419 L 739 418 L 739 389 L 737 389 L 736 390 L 731 390 L 730 391 L 726 391 L 725 390 L 721 390 L 720 389 L 717 389 L 717 419 L 718 420 L 718 422 L 719 423 L 719 424 L 720 425 L 719 426 L 705 426 L 704 425 L 707 422 L 707 421 L 708 420 L 708 417 L 709 416 L 709 390 L 706 387 L 706 386 L 707 385 L 707 384 L 708 383 L 708 381 L 709 380 L 709 358 L 708 357 L 708 353 L 707 352 L 707 351 L 706 350 L 705 350 Z M 547 348 L 550 351 L 552 351 L 553 352 L 558 352 L 559 351 L 563 351 L 564 350 L 568 350 L 569 349 L 572 349 L 573 350 L 573 351 L 572 352 L 572 354 L 571 355 L 571 361 L 570 362 L 568 362 L 566 360 L 563 360 L 562 359 L 548 359 L 547 360 L 547 385 L 548 385 L 549 384 L 552 384 L 553 383 L 555 383 L 556 382 L 557 382 L 558 383 L 558 389 L 557 390 L 556 389 L 553 389 L 552 388 L 547 388 L 547 401 L 548 402 L 548 425 L 547 426 L 545 424 L 544 424 L 543 423 L 537 423 L 536 422 L 536 421 L 537 420 L 537 419 L 538 418 L 538 417 L 539 416 L 539 406 L 540 405 L 540 395 L 539 394 L 539 391 L 536 388 L 536 387 L 537 386 L 537 385 L 538 384 L 538 383 L 539 382 L 539 359 L 538 358 L 538 356 L 537 355 L 537 354 L 536 353 L 537 352 L 540 352 L 541 351 L 544 351 Z M 398 348 L 400 350 L 408 350 L 409 351 L 411 351 L 412 352 L 413 352 L 414 353 L 415 353 L 419 357 L 419 358 L 420 359 L 420 360 L 421 361 L 421 363 L 422 364 L 422 366 L 423 367 L 423 372 L 424 373 L 424 382 L 425 383 L 425 385 L 427 387 L 424 390 L 424 393 L 423 394 L 423 399 L 422 400 L 422 403 L 421 404 L 421 407 L 420 408 L 420 409 L 419 410 L 419 411 L 418 412 L 418 413 L 416 415 L 416 416 L 412 420 L 411 420 L 410 421 L 409 421 L 408 422 L 406 422 L 405 423 L 401 423 L 398 426 L 397 425 L 396 425 L 395 424 L 394 424 L 393 423 L 389 423 L 388 422 L 388 421 L 391 418 L 391 412 L 392 411 L 392 392 L 391 391 L 391 390 L 389 388 L 389 387 L 390 386 L 390 385 L 391 384 L 391 383 L 392 382 L 392 359 L 391 358 L 391 357 L 390 356 L 390 355 L 388 353 L 389 352 L 390 352 L 391 351 L 394 351 L 395 350 L 396 350 Z M 332 349 L 333 348 L 336 351 L 335 352 L 332 352 L 331 353 L 330 353 L 327 356 L 327 357 L 326 358 L 326 359 L 325 360 L 325 361 L 324 362 L 324 364 L 323 365 L 323 368 L 322 369 L 322 372 L 321 373 L 321 379 L 320 380 L 320 396 L 321 397 L 321 402 L 322 403 L 322 406 L 323 407 L 323 410 L 324 411 L 324 412 L 325 413 L 325 415 L 327 417 L 327 418 L 330 421 L 331 421 L 332 422 L 336 422 L 337 421 L 338 421 L 343 416 L 343 415 L 344 414 L 344 413 L 345 412 L 346 413 L 346 422 L 345 423 L 343 423 L 342 424 L 335 424 L 333 426 L 331 424 L 329 424 L 328 423 L 326 423 L 325 422 L 324 422 L 317 415 L 317 414 L 316 413 L 316 412 L 315 411 L 315 410 L 314 409 L 314 407 L 313 406 L 313 404 L 312 403 L 312 399 L 311 398 L 311 391 L 310 390 L 310 389 L 308 387 L 310 385 L 310 384 L 311 383 L 311 375 L 312 374 L 312 371 L 313 370 L 313 368 L 314 367 L 314 365 L 315 364 L 315 363 L 316 362 L 316 361 L 319 358 L 319 357 L 323 353 L 324 353 L 326 351 L 328 351 L 329 350 L 332 350 Z M 244 348 L 245 349 L 246 349 L 247 350 L 254 350 L 255 351 L 257 351 L 258 352 L 259 352 L 265 358 L 265 359 L 266 360 L 266 362 L 267 363 L 267 366 L 269 368 L 267 370 L 267 371 L 266 372 L 266 375 L 265 376 L 265 377 L 264 378 L 264 379 L 261 382 L 260 382 L 258 384 L 257 384 L 256 385 L 254 385 L 253 386 L 255 386 L 256 387 L 258 387 L 259 388 L 260 388 L 264 392 L 264 393 L 266 395 L 266 397 L 267 398 L 267 403 L 268 404 L 268 405 L 269 406 L 268 407 L 267 407 L 267 408 L 266 409 L 266 411 L 265 412 L 265 414 L 263 416 L 263 417 L 262 418 L 261 418 L 259 420 L 258 420 L 257 421 L 256 421 L 255 422 L 252 422 L 251 423 L 247 423 L 244 426 L 242 424 L 241 424 L 240 423 L 235 423 L 234 422 L 235 421 L 235 420 L 237 418 L 237 416 L 238 415 L 238 391 L 237 390 L 237 389 L 235 387 L 236 386 L 236 385 L 238 383 L 238 358 L 237 357 L 237 356 L 234 353 L 236 351 L 240 351 L 241 350 L 242 350 Z M 163 349 L 164 348 L 165 349 L 165 350 L 166 351 L 166 353 L 167 354 L 167 357 L 168 358 L 168 360 L 169 361 L 169 363 L 170 364 L 170 366 L 171 367 L 171 369 L 172 370 L 172 372 L 173 373 L 173 375 L 174 376 L 174 378 L 175 379 L 175 381 L 176 382 L 176 384 L 177 385 L 177 387 L 178 388 L 178 390 L 179 391 L 179 393 L 184 398 L 184 400 L 183 401 L 183 408 L 184 409 L 184 411 L 185 412 L 185 413 L 186 414 L 186 416 L 187 417 L 187 419 L 188 420 L 188 422 L 189 423 L 189 425 L 190 426 L 190 427 L 191 428 L 191 429 L 192 430 L 192 432 L 193 433 L 193 434 L 194 435 L 194 436 L 195 437 L 195 438 L 194 439 L 189 434 L 189 433 L 186 430 L 186 429 L 184 427 L 184 426 L 183 425 L 183 424 L 182 423 L 182 422 L 180 420 L 180 418 L 179 417 L 179 416 L 178 415 L 178 413 L 177 412 L 177 411 L 176 410 L 176 408 L 175 407 L 175 405 L 174 404 L 174 402 L 173 401 L 173 400 L 157 400 L 157 401 L 156 402 L 156 405 L 155 406 L 155 410 L 154 411 L 154 414 L 153 415 L 153 420 L 154 421 L 154 422 L 157 425 L 156 426 L 142 426 L 141 425 L 141 424 L 144 421 L 144 420 L 145 419 L 145 417 L 146 416 L 146 415 L 147 414 L 147 411 L 148 410 L 148 407 L 149 406 L 149 404 L 150 403 L 150 400 L 151 399 L 151 396 L 152 395 L 152 392 L 153 391 L 153 388 L 154 387 L 154 384 L 155 383 L 155 381 L 156 380 L 156 377 L 157 376 L 157 374 L 158 373 L 158 369 L 159 368 L 159 365 L 160 364 L 160 361 L 161 360 L 161 357 L 162 356 L 162 353 L 163 352 Z M 921 64 L 922 63 L 938 63 L 939 64 L 953 64 L 954 65 L 954 66 L 955 67 L 955 68 L 954 69 L 954 71 L 953 72 L 953 73 L 952 74 L 952 76 L 951 77 L 951 79 L 950 80 L 950 82 L 949 83 L 949 86 L 948 87 L 948 89 L 947 90 L 947 91 L 946 92 L 946 94 L 945 95 L 945 96 L 944 97 L 943 97 L 942 96 L 942 85 L 941 84 L 941 80 L 940 79 L 940 78 L 939 77 L 939 76 L 934 71 L 933 71 L 932 70 L 931 70 L 930 69 L 919 69 L 918 70 L 917 70 L 916 71 L 915 71 L 910 76 L 910 77 L 909 78 L 909 79 L 908 80 L 908 81 L 907 82 L 907 84 L 906 85 L 906 88 L 905 89 L 905 95 L 906 96 L 906 100 L 907 101 L 907 102 L 908 103 L 908 104 L 909 105 L 909 106 L 910 107 L 910 108 L 912 110 L 912 111 L 915 114 L 915 115 L 918 118 L 918 119 L 923 124 L 923 125 L 929 131 L 929 132 L 943 146 L 944 146 L 946 148 L 948 148 L 949 149 L 949 159 L 950 160 L 950 162 L 951 163 L 951 165 L 952 166 L 952 168 L 953 169 L 953 171 L 954 172 L 954 176 L 955 177 L 955 184 L 956 185 L 956 194 L 955 195 L 955 201 L 954 202 L 954 204 L 953 205 L 953 207 L 952 208 L 952 209 L 951 210 L 951 212 L 949 214 L 949 215 L 947 217 L 947 218 L 940 225 L 939 225 L 937 227 L 936 227 L 935 228 L 934 228 L 933 229 L 931 229 L 930 230 L 928 230 L 927 231 L 921 231 L 920 232 L 916 232 L 915 231 L 897 231 L 896 232 L 894 230 L 894 202 L 895 201 L 896 201 L 897 202 L 897 203 L 898 204 L 898 206 L 899 207 L 899 208 L 900 209 L 900 210 L 901 211 L 901 212 L 902 213 L 902 214 L 905 217 L 905 218 L 906 219 L 907 219 L 910 222 L 911 222 L 912 223 L 914 223 L 915 224 L 919 224 L 920 223 L 922 223 L 923 222 L 924 222 L 925 221 L 926 221 L 927 220 L 928 220 L 931 217 L 931 216 L 932 215 L 932 214 L 934 212 L 934 211 L 935 210 L 935 208 L 936 207 L 936 204 L 937 203 L 937 201 L 938 200 L 938 187 L 937 186 L 937 181 L 936 180 L 936 177 L 935 176 L 935 174 L 934 173 L 934 171 L 933 170 L 933 169 L 932 168 L 932 167 L 931 166 L 931 165 L 930 164 L 930 163 L 929 162 L 929 161 L 927 159 L 927 158 L 920 151 L 919 151 L 918 150 L 917 150 L 916 149 L 914 149 L 913 148 L 912 148 L 911 147 L 911 145 L 910 144 L 910 141 L 909 140 L 909 138 L 908 137 L 908 136 L 906 134 L 906 133 L 903 130 L 903 129 L 899 125 L 899 124 L 896 121 L 896 120 L 894 118 L 894 117 L 893 116 L 893 115 L 891 113 L 891 111 L 890 110 L 890 109 L 889 108 L 889 105 L 888 104 L 888 101 L 887 100 L 887 92 L 888 91 L 888 87 L 889 86 L 889 85 L 890 84 L 890 83 L 891 82 L 891 81 L 892 80 L 892 79 L 900 71 L 901 71 L 903 69 L 904 69 L 905 68 L 906 68 L 907 67 L 908 67 L 909 66 L 911 66 L 912 65 L 915 65 L 916 64 Z M 485 63 L 487 63 L 489 65 L 490 65 L 491 66 L 505 66 L 506 67 L 510 67 L 511 68 L 514 68 L 515 69 L 517 69 L 518 70 L 519 70 L 520 71 L 521 71 L 523 73 L 524 73 L 526 75 L 527 75 L 531 79 L 531 80 L 534 83 L 534 84 L 535 85 L 535 86 L 536 87 L 536 88 L 537 89 L 537 90 L 538 91 L 538 93 L 539 94 L 539 96 L 540 97 L 540 99 L 541 100 L 541 104 L 542 105 L 542 109 L 543 110 L 543 116 L 544 117 L 544 128 L 545 129 L 545 135 L 546 136 L 546 140 L 547 141 L 547 142 L 548 143 L 548 144 L 551 147 L 551 148 L 550 149 L 549 149 L 546 152 L 546 153 L 545 154 L 545 155 L 544 156 L 544 159 L 543 160 L 543 167 L 542 168 L 542 174 L 541 175 L 541 179 L 540 180 L 540 183 L 539 184 L 539 186 L 538 187 L 538 189 L 537 190 L 537 192 L 536 193 L 536 194 L 535 195 L 535 196 L 534 197 L 534 198 L 533 199 L 533 200 L 532 201 L 532 202 L 531 203 L 531 204 L 529 206 L 529 207 L 526 210 L 526 211 L 519 218 L 518 218 L 516 220 L 515 220 L 513 222 L 512 222 L 511 223 L 509 223 L 508 224 L 506 224 L 505 225 L 500 225 L 499 226 L 494 226 L 493 227 L 492 227 L 491 228 L 490 228 L 486 232 L 485 232 L 484 231 L 483 231 L 481 229 L 479 229 L 478 228 L 477 228 L 476 227 L 474 227 L 473 226 L 464 226 L 462 224 L 467 219 L 468 219 L 468 218 L 470 216 L 470 213 L 471 212 L 471 196 L 472 195 L 472 166 L 473 165 L 473 161 L 472 160 L 472 157 L 471 156 L 471 155 L 470 154 L 470 153 L 465 148 L 465 147 L 469 143 L 469 142 L 470 141 L 470 140 L 471 139 L 471 138 L 472 137 L 472 86 L 471 85 L 471 83 L 470 82 L 470 81 L 468 79 L 468 78 L 465 75 L 465 74 L 463 72 L 465 70 L 468 70 L 469 69 L 472 69 L 473 68 L 476 68 L 477 67 L 478 67 L 479 66 L 481 66 L 482 65 L 483 65 Z M 362 64 L 363 63 L 365 63 L 367 65 L 368 65 L 369 66 L 383 66 L 384 67 L 388 67 L 389 68 L 392 68 L 393 69 L 394 69 L 395 70 L 397 70 L 398 71 L 399 71 L 401 73 L 402 73 L 404 75 L 405 75 L 409 79 L 409 80 L 411 82 L 411 83 L 413 85 L 413 86 L 414 87 L 414 88 L 415 89 L 415 90 L 416 91 L 416 93 L 417 94 L 417 96 L 418 97 L 418 99 L 419 100 L 419 104 L 420 105 L 420 110 L 421 111 L 421 118 L 422 119 L 422 130 L 423 131 L 423 136 L 424 137 L 424 140 L 425 141 L 425 142 L 426 143 L 426 144 L 429 147 L 429 148 L 428 149 L 427 149 L 424 152 L 424 153 L 422 155 L 422 158 L 421 159 L 421 167 L 420 168 L 420 173 L 419 174 L 419 178 L 418 179 L 418 182 L 417 183 L 417 186 L 416 187 L 416 189 L 415 190 L 415 191 L 414 192 L 414 194 L 413 195 L 413 196 L 412 197 L 412 198 L 411 199 L 411 200 L 410 201 L 410 202 L 409 203 L 409 204 L 407 206 L 407 207 L 404 210 L 404 211 L 397 218 L 396 218 L 394 220 L 393 220 L 392 221 L 391 221 L 389 223 L 387 223 L 386 224 L 384 224 L 383 225 L 377 225 L 376 226 L 372 226 L 371 227 L 370 227 L 369 228 L 368 228 L 364 232 L 363 232 L 362 231 L 361 231 L 360 230 L 359 230 L 358 229 L 357 229 L 356 228 L 355 228 L 354 227 L 352 227 L 351 226 L 342 226 L 340 224 L 347 217 L 347 216 L 348 215 L 348 212 L 349 211 L 349 194 L 350 193 L 350 165 L 351 164 L 351 161 L 350 160 L 350 158 L 349 157 L 349 155 L 347 153 L 347 152 L 343 148 L 343 147 L 346 144 L 346 143 L 348 141 L 348 140 L 349 139 L 349 138 L 350 137 L 350 87 L 349 86 L 349 83 L 348 82 L 348 81 L 346 79 L 346 78 L 343 75 L 343 74 L 341 72 L 343 70 L 346 70 L 347 69 L 350 69 L 351 68 L 354 68 L 355 67 L 356 67 L 357 66 L 359 66 L 361 64 Z M 736 63 L 737 62 L 775 62 L 776 63 L 776 64 L 777 65 L 777 68 L 778 69 L 778 73 L 779 74 L 779 79 L 780 80 L 780 84 L 781 85 L 781 89 L 782 90 L 782 93 L 783 94 L 783 98 L 784 99 L 784 102 L 785 103 L 785 106 L 786 107 L 786 110 L 787 111 L 787 114 L 788 115 L 788 119 L 789 120 L 789 123 L 790 124 L 790 127 L 791 128 L 791 131 L 792 132 L 792 135 L 793 136 L 793 139 L 794 140 L 794 143 L 795 144 L 795 146 L 796 147 L 796 149 L 796 148 L 797 147 L 797 144 L 798 143 L 798 140 L 799 139 L 799 136 L 800 135 L 800 132 L 801 131 L 801 127 L 802 126 L 802 124 L 803 123 L 803 120 L 804 119 L 804 116 L 805 115 L 805 112 L 806 111 L 806 107 L 807 106 L 807 104 L 808 103 L 808 99 L 809 98 L 809 94 L 810 93 L 810 90 L 811 89 L 811 85 L 812 84 L 812 81 L 813 80 L 813 77 L 814 76 L 814 72 L 815 71 L 815 67 L 816 66 L 816 63 L 817 62 L 855 62 L 856 63 L 855 64 L 854 64 L 850 68 L 849 68 L 849 69 L 844 74 L 844 75 L 843 76 L 843 77 L 841 79 L 841 80 L 840 81 L 840 102 L 839 103 L 839 132 L 840 133 L 840 136 L 841 137 L 841 139 L 842 140 L 842 141 L 843 142 L 843 143 L 844 144 L 844 145 L 846 147 L 846 148 L 843 151 L 842 151 L 840 153 L 840 154 L 839 155 L 839 197 L 840 198 L 840 217 L 841 218 L 841 220 L 842 221 L 842 222 L 843 223 L 843 224 L 847 228 L 847 229 L 849 231 L 848 232 L 817 232 L 816 231 L 818 229 L 818 228 L 820 226 L 820 225 L 821 224 L 821 223 L 822 222 L 822 219 L 823 218 L 823 156 L 824 155 L 824 108 L 823 108 L 823 110 L 822 111 L 822 113 L 821 114 L 821 117 L 820 118 L 820 120 L 819 121 L 819 124 L 818 125 L 818 128 L 817 129 L 817 131 L 816 132 L 816 134 L 815 135 L 815 137 L 814 138 L 814 141 L 813 142 L 813 145 L 812 146 L 812 149 L 811 150 L 811 152 L 810 153 L 810 156 L 809 157 L 809 159 L 808 160 L 808 163 L 807 164 L 807 167 L 806 168 L 806 170 L 805 171 L 805 173 L 804 174 L 804 177 L 803 178 L 803 180 L 802 181 L 802 183 L 801 184 L 801 186 L 800 187 L 800 190 L 799 191 L 799 193 L 798 194 L 798 196 L 797 197 L 797 198 L 796 199 L 795 198 L 795 197 L 794 196 L 794 194 L 793 193 L 793 190 L 792 189 L 792 188 L 791 187 L 791 184 L 790 183 L 790 180 L 789 179 L 789 177 L 788 176 L 788 174 L 787 173 L 787 170 L 786 169 L 786 167 L 785 166 L 785 163 L 784 162 L 784 160 L 783 159 L 783 157 L 782 156 L 782 154 L 781 153 L 781 152 L 780 151 L 780 148 L 779 147 L 779 145 L 778 144 L 778 141 L 777 140 L 777 138 L 776 137 L 776 134 L 775 133 L 775 130 L 774 129 L 774 126 L 773 125 L 773 122 L 772 121 L 772 119 L 771 118 L 771 115 L 770 114 L 770 111 L 769 110 L 769 109 L 769 207 L 770 208 L 770 216 L 771 217 L 771 221 L 772 222 L 772 224 L 773 225 L 773 227 L 774 228 L 774 229 L 776 231 L 775 232 L 745 232 L 744 231 L 744 230 L 747 227 L 747 226 L 748 225 L 748 224 L 749 223 L 749 222 L 750 221 L 750 218 L 751 217 L 751 215 L 752 214 L 752 202 L 753 201 L 753 155 L 746 148 L 746 147 L 747 146 L 747 145 L 749 143 L 749 142 L 750 141 L 750 140 L 751 139 L 751 138 L 752 137 L 752 134 L 753 133 L 752 132 L 752 103 L 753 102 L 753 86 L 752 85 L 752 83 L 751 82 L 751 81 L 750 80 L 750 78 L 749 77 L 749 76 L 747 74 L 747 73 L 739 65 L 738 65 Z M 636 62 L 638 64 L 638 65 L 639 66 L 639 68 L 640 69 L 640 71 L 641 72 L 641 75 L 642 76 L 642 78 L 643 79 L 643 82 L 644 83 L 644 85 L 645 86 L 645 87 L 646 88 L 646 91 L 647 92 L 647 94 L 648 95 L 648 97 L 649 98 L 649 100 L 650 101 L 650 103 L 651 104 L 651 106 L 652 107 L 652 109 L 653 110 L 653 112 L 654 113 L 654 115 L 655 116 L 655 118 L 656 119 L 656 121 L 657 122 L 657 124 L 658 125 L 658 127 L 659 128 L 659 130 L 660 131 L 660 132 L 661 133 L 661 135 L 662 136 L 662 138 L 663 139 L 663 141 L 664 142 L 664 144 L 665 145 L 665 146 L 666 147 L 666 149 L 667 150 L 667 152 L 668 153 L 668 155 L 669 156 L 669 158 L 670 159 L 670 160 L 671 161 L 671 162 L 673 164 L 673 165 L 677 169 L 678 169 L 680 171 L 681 171 L 682 172 L 682 174 L 681 175 L 681 176 L 680 177 L 680 178 L 679 179 L 679 180 L 678 181 L 678 190 L 679 191 L 679 193 L 680 194 L 680 195 L 681 196 L 681 198 L 682 199 L 682 201 L 683 202 L 683 204 L 684 205 L 684 207 L 685 208 L 685 209 L 686 210 L 686 212 L 687 213 L 687 215 L 688 216 L 688 218 L 689 219 L 689 221 L 690 222 L 690 223 L 691 224 L 691 226 L 692 227 L 692 229 L 693 230 L 693 231 L 694 232 L 694 234 L 695 235 L 695 236 L 696 237 L 696 238 L 697 239 L 697 241 L 698 242 L 698 243 L 699 244 L 699 245 L 700 246 L 700 247 L 701 248 L 701 250 L 702 251 L 702 252 L 703 253 L 703 254 L 704 255 L 704 256 L 705 257 L 705 258 L 706 259 L 706 260 L 707 261 L 706 262 L 705 262 L 702 259 L 701 259 L 700 258 L 700 257 L 693 250 L 693 249 L 688 244 L 688 243 L 686 241 L 686 240 L 684 238 L 684 237 L 682 235 L 682 234 L 680 232 L 680 231 L 679 230 L 679 229 L 678 228 L 678 227 L 676 225 L 676 224 L 675 223 L 675 222 L 674 221 L 674 220 L 673 219 L 673 218 L 672 217 L 672 216 L 671 215 L 671 213 L 670 212 L 670 211 L 669 210 L 669 209 L 668 208 L 668 206 L 667 205 L 667 204 L 666 203 L 666 201 L 665 200 L 665 199 L 664 198 L 664 196 L 663 195 L 663 193 L 662 192 L 662 190 L 661 189 L 661 188 L 660 187 L 660 185 L 659 184 L 659 182 L 658 181 L 658 180 L 657 179 L 657 177 L 656 176 L 656 175 L 633 175 L 632 174 L 621 174 L 619 176 L 619 178 L 618 179 L 618 182 L 617 183 L 617 186 L 616 187 L 616 190 L 615 191 L 615 194 L 614 195 L 614 198 L 613 199 L 613 202 L 612 203 L 612 207 L 611 208 L 611 213 L 610 214 L 610 217 L 611 218 L 611 221 L 612 222 L 612 223 L 613 224 L 613 225 L 619 231 L 618 232 L 583 232 L 582 231 L 587 226 L 587 225 L 589 223 L 589 222 L 591 220 L 591 219 L 592 218 L 592 217 L 593 216 L 593 214 L 594 213 L 594 212 L 595 211 L 595 209 L 596 208 L 596 206 L 597 205 L 597 203 L 598 202 L 598 199 L 599 198 L 599 195 L 600 194 L 600 192 L 601 191 L 601 189 L 602 188 L 602 185 L 603 184 L 603 181 L 604 180 L 604 177 L 605 176 L 605 174 L 606 173 L 606 170 L 607 169 L 607 166 L 608 165 L 608 162 L 609 161 L 609 159 L 610 158 L 610 156 L 611 155 L 611 152 L 612 151 L 612 148 L 613 147 L 613 145 L 614 144 L 614 141 L 615 140 L 615 137 L 616 136 L 616 134 L 617 133 L 617 130 L 618 129 L 618 126 L 619 125 L 619 122 L 620 121 L 620 119 L 621 118 L 621 115 L 622 114 L 622 111 L 623 110 L 623 107 L 624 106 L 624 103 L 625 102 L 625 100 L 626 99 L 626 96 L 627 95 L 627 92 L 628 91 L 628 88 L 629 87 L 629 84 L 630 83 L 630 80 L 631 79 L 631 76 L 632 75 L 632 72 L 633 71 L 633 68 L 634 67 L 634 64 Z M 271 62 L 275 66 L 276 66 L 278 68 L 280 68 L 281 69 L 284 69 L 285 70 L 301 70 L 303 72 L 303 73 L 302 74 L 302 76 L 301 77 L 301 80 L 300 81 L 300 84 L 299 85 L 299 88 L 298 89 L 297 89 L 296 88 L 296 87 L 295 86 L 295 85 L 288 78 L 287 78 L 285 76 L 284 76 L 282 74 L 281 74 L 279 72 L 278 72 L 277 71 L 275 71 L 274 70 L 273 71 L 273 81 L 272 82 L 272 111 L 271 112 L 271 142 L 272 143 L 273 143 L 274 142 L 276 142 L 277 141 L 280 141 L 281 140 L 283 140 L 284 139 L 287 139 L 288 138 L 290 138 L 291 137 L 293 137 L 294 136 L 295 136 L 296 137 L 296 152 L 295 153 L 294 153 L 293 152 L 291 152 L 290 151 L 287 151 L 286 150 L 281 150 L 280 149 L 271 149 L 271 173 L 272 174 L 272 204 L 273 205 L 273 223 L 275 223 L 276 222 L 278 222 L 279 221 L 280 221 L 281 220 L 282 220 L 284 218 L 285 218 L 287 216 L 288 216 L 289 215 L 290 215 L 292 213 L 293 213 L 295 211 L 296 211 L 299 208 L 300 208 L 307 201 L 308 202 L 308 221 L 307 222 L 307 224 L 306 225 L 283 225 L 282 226 L 279 226 L 278 227 L 277 227 L 276 228 L 275 228 L 272 231 L 270 231 L 269 230 L 268 230 L 266 228 L 265 228 L 264 227 L 263 227 L 262 226 L 260 226 L 259 225 L 246 225 L 245 224 L 245 223 L 248 220 L 248 219 L 250 217 L 250 216 L 251 215 L 251 214 L 252 213 L 252 211 L 253 210 L 253 207 L 254 206 L 254 186 L 255 185 L 255 164 L 254 163 L 254 159 L 253 158 L 253 157 L 252 156 L 252 155 L 251 154 L 251 153 L 246 148 L 246 147 L 249 144 L 249 143 L 251 141 L 251 140 L 252 139 L 252 138 L 253 137 L 253 136 L 254 135 L 254 89 L 253 88 L 253 85 L 252 84 L 252 82 L 251 81 L 251 80 L 250 79 L 250 78 L 249 77 L 249 76 L 246 73 L 246 72 L 245 71 L 246 70 L 254 70 L 255 69 L 261 69 L 262 68 L 263 68 L 264 67 L 265 67 L 266 66 L 267 66 Z M 78 63 L 79 62 L 110 62 L 111 63 L 108 66 L 108 68 L 107 69 L 107 76 L 108 77 L 108 82 L 109 83 L 109 88 L 110 89 L 110 93 L 111 94 L 111 99 L 112 100 L 112 105 L 113 106 L 113 111 L 114 112 L 114 117 L 115 118 L 115 123 L 116 124 L 116 129 L 117 130 L 117 136 L 118 137 L 118 142 L 119 143 L 119 149 L 120 150 L 120 154 L 121 155 L 121 160 L 122 161 L 122 165 L 123 166 L 123 163 L 124 162 L 124 159 L 125 158 L 125 156 L 126 155 L 126 153 L 127 152 L 127 149 L 128 148 L 128 145 L 129 144 L 129 142 L 130 141 L 130 138 L 131 137 L 131 135 L 132 134 L 132 131 L 133 130 L 133 128 L 134 127 L 134 124 L 135 123 L 135 120 L 136 119 L 136 117 L 137 116 L 137 114 L 138 113 L 138 110 L 139 109 L 139 106 L 140 105 L 140 103 L 141 102 L 141 99 L 142 98 L 142 96 L 143 95 L 143 92 L 144 91 L 146 91 L 147 92 L 147 95 L 148 96 L 148 98 L 149 99 L 149 102 L 150 103 L 150 105 L 151 106 L 151 108 L 152 109 L 152 112 L 153 113 L 153 116 L 154 117 L 154 120 L 155 121 L 155 123 L 156 124 L 156 126 L 157 127 L 157 130 L 158 131 L 158 134 L 159 135 L 159 137 L 160 138 L 160 141 L 161 142 L 161 144 L 162 145 L 162 148 L 163 149 L 163 151 L 164 152 L 164 155 L 165 156 L 165 158 L 166 159 L 166 162 L 167 163 L 167 166 L 168 165 L 168 162 L 169 161 L 169 155 L 170 154 L 170 149 L 171 148 L 171 143 L 172 142 L 172 137 L 173 136 L 173 131 L 174 130 L 174 124 L 175 123 L 175 118 L 176 117 L 176 113 L 177 112 L 177 107 L 178 106 L 178 100 L 179 99 L 179 94 L 180 93 L 180 88 L 181 87 L 181 83 L 182 82 L 182 77 L 183 76 L 183 68 L 182 67 L 182 66 L 181 65 L 181 64 L 180 63 L 181 62 L 210 62 L 211 63 L 210 64 L 209 64 L 207 66 L 206 66 L 204 68 L 204 69 L 203 70 L 203 71 L 202 72 L 202 73 L 201 74 L 201 75 L 200 76 L 200 78 L 199 79 L 199 82 L 198 83 L 198 86 L 197 87 L 197 90 L 196 91 L 196 94 L 195 95 L 195 98 L 194 99 L 194 103 L 193 104 L 193 108 L 192 109 L 192 113 L 191 114 L 191 118 L 190 119 L 190 122 L 189 123 L 189 128 L 188 129 L 188 138 L 189 139 L 189 141 L 190 142 L 190 144 L 192 146 L 185 153 L 185 154 L 184 155 L 184 156 L 183 157 L 183 160 L 182 161 L 182 164 L 181 165 L 181 169 L 180 170 L 180 173 L 179 174 L 179 178 L 178 179 L 178 184 L 177 185 L 177 190 L 176 191 L 176 195 L 175 196 L 175 201 L 174 202 L 174 206 L 173 207 L 173 212 L 172 213 L 172 218 L 171 219 L 171 224 L 170 225 L 170 228 L 169 229 L 169 231 L 168 232 L 166 232 L 165 231 L 165 229 L 164 228 L 164 225 L 163 224 L 163 220 L 162 219 L 162 215 L 161 214 L 161 211 L 160 210 L 160 206 L 159 205 L 159 202 L 158 201 L 158 198 L 157 197 L 157 194 L 156 193 L 156 189 L 155 188 L 155 185 L 154 184 L 154 180 L 153 179 L 153 175 L 152 174 L 152 170 L 151 169 L 151 166 L 150 165 L 150 161 L 149 160 L 149 156 L 148 155 L 148 152 L 147 151 L 147 147 L 146 146 L 146 144 L 145 143 L 145 141 L 144 140 L 144 145 L 143 146 L 143 150 L 142 151 L 142 155 L 141 156 L 141 160 L 140 161 L 140 164 L 139 165 L 139 169 L 138 170 L 138 173 L 137 174 L 137 178 L 136 179 L 136 183 L 135 184 L 135 187 L 134 188 L 134 192 L 133 193 L 133 196 L 132 197 L 132 201 L 131 202 L 131 206 L 130 207 L 130 209 L 129 210 L 129 214 L 128 215 L 128 218 L 127 219 L 127 223 L 126 224 L 126 227 L 125 228 L 125 230 L 124 231 L 124 232 L 123 233 L 121 231 L 121 228 L 120 227 L 120 223 L 119 222 L 119 217 L 118 216 L 118 211 L 117 210 L 117 206 L 116 205 L 116 201 L 115 200 L 115 195 L 114 194 L 114 190 L 113 189 L 113 184 L 112 183 L 112 179 L 111 178 L 111 174 L 110 173 L 110 169 L 109 168 L 109 164 L 108 163 L 108 159 L 107 158 L 107 156 L 106 155 L 106 154 L 103 151 L 103 150 L 102 150 L 99 147 L 99 145 L 100 144 L 100 142 L 101 141 L 101 140 L 102 139 L 102 138 L 103 137 L 103 132 L 102 131 L 102 127 L 101 126 L 101 123 L 100 122 L 100 118 L 99 117 L 99 113 L 98 112 L 98 109 L 97 108 L 97 104 L 96 103 L 96 100 L 95 99 L 95 96 L 94 95 L 94 92 L 93 91 L 93 88 L 92 87 L 92 84 L 91 83 L 91 80 L 90 79 L 90 75 L 89 74 L 89 72 L 88 71 L 88 70 L 86 68 L 85 68 L 82 65 L 81 65 L 80 64 L 79 64 Z" fill-rule="evenodd" />
</svg>